<svg xmlns="http://www.w3.org/2000/svg" xmlns:xlink="http://www.w3.org/1999/xlink" viewBox="0,0,256,256" width="96px" height="96px" fill-rule="nonzero"><g fill="#ffffff" fill-rule="nonzero" stroke="none" stroke-width="1" stroke-linecap="butt" stroke-linejoin="miter" stroke-miterlimit="10" stroke-dasharray="" stroke-dashoffset="0" font-family="none" font-weight="none" font-size="none" text-anchor="none" style="mix-blend-mode: normal"><g transform="scale(10.66667,10.66667)"><path d="M19,3h-14c-1.105,0 -2,0.895 -2,2v14c0,1.105 0.895,2 2,2h14c1.105,0 2,-0.895 2,-2v-14c0,-1.105 -0.895,-2 -2,-2zM17.907,15.684l-1.735,0.024c0,0 -0.374,0.073 -0.864,-0.265c-0.649,-0.446 -1.261,-1.606 -1.738,-1.455c-0.484,0.154 -0.469,1.198 -0.469,1.198c0,0 0.004,0.184 -0.107,0.304c-0.12,0.129 -0.355,0.116 -0.355,0.116h-0.777c0,0 -1.714,0.142 -3.225,-1.433c-1.646,-1.717 -3.1,-5.106 -3.1,-5.106c0,0 -0.085,-0.214 0.006,-0.323c0.103,-0.121 0.381,-0.124 0.381,-0.124l1.857,-0.009c0,0 0.175,0.031 0.301,0.123c0.103,0.076 0.162,0.219 0.162,0.219c0,0 0.3,0.761 0.698,1.45c0.776,1.343 1.137,1.637 1.4,1.493c0.384,-0.21 0.269,-1.898 0.269,-1.898c0,0 0.007,-0.613 -0.193,-0.886c-0.156,-0.213 -0.449,-0.276 -0.578,-0.292c-0.105,-0.014 0.066,-0.257 0.289,-0.367c0.334,-0.163 0.925,-0.173 1.622,-0.166c0.543,0.006 0.7,0.039 0.912,0.091c0.641,0.155 0.423,0.753 0.423,2.188c0,0.46 -0.083,1.106 0.248,1.319c0.143,0.092 0.491,0.014 1.36,-1.466c0.413,-0.702 0.722,-1.527 0.722,-1.527c0,0 0.068,-0.147 0.173,-0.21c0.108,-0.065 0.253,-0.045 0.253,-0.045l1.955,-0.012c0,0 0.587,-0.071 0.683,0.196c0.1,0.279 -0.219,0.93 -1.018,1.995c-1.311,1.75 -1.457,1.587 -0.368,2.599c1.04,0.967 1.255,1.437 1.291,1.496c0.43,0.716 -0.478,0.773 -0.478,0.773z"></path></g></g></svg>